<svg width="117" height="46" viewBox="0 0 117 46" fill="none" xmlns="http://www.w3.org/2000/svg">
<path d="M61.608 20.6L61.68 15.296C61.664 15.184 61.6 15.128 61.488 15.128C61.392 15.128 61.304 15.184 61.224 15.296C60.44 17.248 59.448 19.944 58.248 23.384C57.064 26.808 56.44 28.608 56.376 28.784C56.328 28.96 56.176 29.168 55.92 29.408C55.664 29.664 55.44 29.792 55.248 29.792C55.056 29.792 54.96 29.64 54.96 29.336C54.944 29.224 54.92 28.696 54.888 27.752C54.856 26.792 54.808 25.816 54.744 24.824C54.68 23.832 54.592 22.808 54.48 21.752C54.384 20.68 54.24 19.808 54.048 19.136C53.856 18.448 53.64 18.104 53.4 18.104C52.984 18.104 51.808 21.384 49.872 27.944C49.616 28.84 49.48 29.304 49.464 29.336C49.4 29.544 49.248 29.72 49.008 29.864C48.784 30.024 48.568 30.104 48.36 30.104C48.184 30.104 48.096 29.976 48.096 29.72C48.208 26.424 48.264 23.696 48.264 21.536C48.264 17.456 48.2 14.712 48.072 13.304L48 12.512C48 12.4 48.112 12.24 48.336 12.032C48.56 11.808 48.768 11.696 48.96 11.696C49.152 11.696 49.248 11.872 49.248 12.224V12.392L49.296 14.408V15.392C49.296 21.488 49.256 25.176 49.176 26.456C49.176 26.744 49.2 26.888 49.248 26.888C49.296 26.888 49.96 24.936 51.24 21.032C52.536 17.112 53.256 14.912 53.4 14.432C53.544 13.952 53.728 13.592 53.952 13.352C54.176 13.096 54.416 12.968 54.672 12.968C55.04 12.968 55.344 14.016 55.584 16.112C55.824 18.208 56.008 20.304 56.136 22.4C56.28 24.496 56.384 25.544 56.448 25.544C56.528 25.544 56.744 25.088 57.096 24.176C57.448 23.264 57.848 22.16 58.296 20.864C58.76 19.568 59.216 18.272 59.664 16.976C60.768 13.872 61.376 12.352 61.488 12.416C61.456 12.4 61.504 12.336 61.632 12.224C62.016 11.904 62.328 11.728 62.568 11.696C62.92 11.744 63.096 11.96 63.096 12.344V12.968C63.096 14.168 63.12 15.128 63.168 15.848C63.648 23.832 65.432 27.824 68.52 27.824C68.776 27.824 69.008 27.752 69.216 27.608C69.424 27.464 69.56 27.392 69.624 27.392C69.704 27.392 69.792 27.44 69.888 27.536C69.984 27.632 70.032 27.736 70.032 27.848C70.032 28.264 69.592 28.752 68.712 29.312C67.848 29.888 67 30.176 66.168 30.176C63.128 30.176 61.608 26.984 61.608 20.6ZM76.2227 25.928L76.1267 26.6C76.1267 26.888 76.2467 27.192 76.4867 27.512C76.7427 27.816 77.0387 27.968 77.3747 27.968C77.6307 27.968 77.8387 27.912 77.9987 27.8C78.3507 27.56 78.5667 27.4 78.6467 27.32C78.7427 27.224 78.8867 27.176 79.0787 27.176C79.2867 27.176 79.3907 27.248 79.3907 27.392C79.3907 27.552 79.0147 28.056 78.2627 28.904C78.0227 29.176 77.6707 29.464 77.2067 29.768C76.7427 30.072 76.3267 30.224 75.9587 30.224C75.6067 30.224 75.3347 30.16 75.1427 30.032C74.9667 29.92 74.8387 29.736 74.7587 29.48C74.6627 29.128 74.6147 28.696 74.6147 28.184C74.6147 28.12 74.5747 28.088 74.4947 28.088C74.4147 28.088 74.2307 28.248 73.9427 28.568C73.0467 29.496 72.3187 29.96 71.7587 29.96C71.2147 29.96 70.7907 29.816 70.4867 29.528C70.1987 29.24 70.0547 28.872 70.0547 28.424C70.0547 27.64 70.2627 26.896 70.6787 26.192C71.0947 25.472 71.5907 24.896 72.1667 24.464C73.4467 23.52 74.4387 23.048 75.1427 23.048C76.1987 23.08 76.7267 23.456 76.7267 24.176C76.7267 24.432 76.6147 24.688 76.3907 24.944C76.1667 25.184 75.9587 25.304 75.7667 25.304C75.5747 25.304 75.3107 25.136 74.9747 24.8C74.6387 24.464 74.2707 24.296 73.8707 24.296C73.4707 24.296 73.1427 24.464 72.8867 24.8C72.6307 25.12 72.5027 25.536 72.5027 26.048C72.5027 26.88 72.9427 27.296 73.8227 27.296C74.1747 27.296 74.4627 27.208 74.6867 27.032C74.9267 26.856 75.0947 26.664 75.1907 26.456C75.4627 25.912 75.7107 25.64 75.9347 25.64C76.1267 25.64 76.2227 25.736 76.2227 25.928ZM78.8963 26.936C78.8963 26.68 79.1443 26.264 79.6403 25.688C80.1363 25.096 80.5363 24.8 80.8403 24.8C81.1603 24.8 81.3923 24.92 81.5363 25.16C81.6963 25.4 81.7923 25.664 81.8242 25.952C81.8563 26.24 81.9443 26.504 82.0883 26.744C82.2483 26.984 82.4723 27.104 82.7603 27.104C83.0643 27.104 83.3283 26.976 83.5523 26.72C83.7923 26.448 83.9843 26.152 84.1283 25.832C84.2723 25.496 84.4643 25.2 84.7043 24.944C84.9443 24.672 85.1763 24.536 85.4003 24.536C85.6403 24.536 85.8083 24.632 85.9043 24.824C86.8963 26.952 87.9043 28.016 88.9283 28.016C89.0883 28.016 89.2323 27.992 89.3603 27.944C89.4883 27.896 89.5843 27.872 89.6483 27.872C89.8403 27.872 89.9363 28.024 89.9363 28.328C89.9363 28.872 89.6483 29.36 89.0723 29.792C88.5123 30.224 87.9363 30.44 87.3443 30.44C86.7523 30.44 86.2483 30.248 85.8323 29.864C85.4323 29.48 85.1523 29.088 84.9922 28.688C84.8483 28.272 84.7363 27.872 84.6562 27.488C84.5923 27.104 84.5203 26.912 84.4403 26.912C84.3123 26.912 84.0563 27.168 83.6723 27.68C83.3043 28.176 82.8803 28.68 82.4003 29.192C81.9363 29.704 81.5203 29.96 81.1523 29.96C80.7683 29.912 80.4643 29.72 80.2402 29.384C80.0163 29.064 79.8723 28.728 79.8083 28.376C79.6643 27.416 79.3603 26.936 78.8963 26.936ZM90.8083 24.344C91.2723 23.928 91.6883 22.984 92.0563 21.512C92.4403 20.024 92.6323 18.856 92.6323 18.008C92.6323 17.16 92.4803 16.736 92.1763 16.736C91.7123 16.736 91.3363 17.384 91.0483 18.68C90.7603 19.976 90.6163 21.056 90.6163 21.92C90.6163 22.768 90.6803 23.576 90.8083 24.344ZM91.4803 30.032C91.0483 30.032 90.6723 29.88 90.3523 29.576C90.0483 29.272 89.8163 28.936 89.6563 28.568C89.5123 28.2 89.4003 27.752 89.3203 27.224C89.0483 25.464 89.1923 23.304 89.7523 20.744C90.0883 19.128 90.5523 17.752 91.1443 16.616C91.7363 15.464 92.3363 14.888 92.9443 14.888C93.2003 14.888 93.4003 15.048 93.5443 15.368C93.7043 15.672 93.7843 15.952 93.7843 16.208C93.7683 17.744 93.4563 19.424 92.8483 21.248C92.2403 23.056 91.6163 24.352 90.9763 25.136C91.4723 26.88 92.2483 27.752 93.3043 27.752C93.5603 27.752 93.8483 27.68 94.1683 27.536C93.5443 27.312 93.2323 26.856 93.2323 26.168C93.2323 25.464 93.4883 24.784 94.0003 24.128C94.5283 23.472 95.0723 23.144 95.6323 23.144C95.8083 23.144 95.9523 23.216 96.0643 23.36C96.1923 23.488 96.2563 23.648 96.2563 23.84C96.2563 24.032 96.2163 24.232 96.1363 24.44C96.0563 24.648 96.0163 24.864 96.0163 25.088C96.0163 25.552 96.3203 25.784 96.9283 25.784C97.1363 25.784 97.3843 25.696 97.6723 25.52C97.9603 25.328 98.1523 25.232 98.2483 25.232C98.4563 25.232 98.5603 25.312 98.5603 25.472C98.5603 25.632 98.4083 25.856 98.1043 26.144C97.8003 26.416 97.3603 26.704 96.7843 27.008C96.2083 27.296 95.6163 27.48 95.0083 27.56C94.3203 29.208 93.1443 30.032 91.4803 30.032ZM102.871 25.928L102.775 26.6C102.775 26.888 102.895 27.192 103.135 27.512C103.391 27.816 103.687 27.968 104.023 27.968C104.279 27.968 104.487 27.912 104.647 27.8C104.999 27.56 105.215 27.4 105.295 27.32C105.391 27.224 105.535 27.176 105.727 27.176C105.935 27.176 106.039 27.248 106.039 27.392C106.039 27.552 105.663 28.056 104.911 28.904C104.671 29.176 104.319 29.464 103.855 29.768C103.391 30.072 102.975 30.224 102.607 30.224C102.255 30.224 101.983 30.16 101.791 30.032C101.615 29.92 101.487 29.736 101.407 29.48C101.311 29.128 101.263 28.696 101.263 28.184C101.263 28.12 101.223 28.088 101.143 28.088C101.063 28.088 100.879 28.248 100.591 28.568C99.6951 29.496 98.9671 29.96 98.4071 29.96C97.8631 29.96 97.4391 29.816 97.1351 29.528C96.8471 29.24 96.7031 28.872 96.7031 28.424C96.7031 27.64 96.9111 26.896 97.3271 26.192C97.7431 25.472 98.2391 24.896 98.8151 24.464C100.095 23.52 101.087 23.048 101.791 23.048C102.847 23.08 103.375 23.456 103.375 24.176C103.375 24.432 103.263 24.688 103.039 24.944C102.815 25.184 102.607 25.304 102.415 25.304C102.223 25.304 101.959 25.136 101.623 24.8C101.287 24.464 100.919 24.296 100.519 24.296C100.119 24.296 99.7911 24.464 99.5351 24.8C99.2791 25.12 99.1511 25.536 99.1511 26.048C99.1511 26.88 99.5911 27.296 100.471 27.296C100.823 27.296 101.111 27.208 101.335 27.032C101.575 26.856 101.743 26.664 101.839 26.456C102.111 25.912 102.359 25.64 102.583 25.64C102.775 25.64 102.871 25.736 102.871 25.928Z" fill="white"/>
<path d="M14.328 27.968L13.896 28.04C13 28.04 12.272 27.392 11.712 26.096C11.168 24.784 10.896 23.12 10.896 21.104C10.896 19.072 11.12 16.928 11.568 14.672C11.568 14.544 11.488 14.48 11.328 14.48C10.928 14.512 10.672 14.64 10.56 14.864C10.448 15.072 10.264 15.616 10.008 16.496C9.752 17.376 9.472 18.616 9.168 20.216C8.88 21.816 8.736 23.432 8.736 25.064C8.736 26.696 8.936 27.992 9.336 28.952C9.752 29.912 10.464 30.392 11.472 30.392C12.144 30.392 12.832 30.168 13.536 29.72C14.256 29.288 14.616 28.824 14.616 28.328C14.616 28.088 14.52 27.968 14.328 27.968ZM3.816 13.76C5.576 12.816 7.92 11.944 10.848 11.144C13.776 10.344 16.344 9.888 18.552 9.776C18.904 9.824 19.08 10.008 19.08 10.328C19.08 10.632 18.984 11.032 18.792 11.528C18.616 12.024 18.384 12.28 18.096 12.296C16.592 12.392 14.12 12.888 10.68 13.784C7.256 14.68 4.856 15.624 3.48 16.616C3.384 16.664 3.296 16.688 3.216 16.688C3.072 16.688 3 16.552 3 16.28C3 16.008 3.104 15.536 3.312 14.864C3.536 14.192 3.704 13.824 3.816 13.76ZM21.7539 25.928L21.6579 26.6C21.6579 26.888 21.7779 27.192 22.0179 27.512C22.2739 27.816 22.5699 27.968 22.9059 27.968C23.1619 27.968 23.3699 27.912 23.5299 27.8C23.8819 27.56 24.0979 27.4 24.1779 27.32C24.2739 27.224 24.4179 27.176 24.6099 27.176C24.8179 27.176 24.9219 27.248 24.9219 27.392C24.9219 27.552 24.5459 28.056 23.7939 28.904C23.5539 29.176 23.2019 29.464 22.7379 29.768C22.2739 30.072 21.8579 30.224 21.4899 30.224C21.1379 30.224 20.8659 30.16 20.6739 30.032C20.4979 29.92 20.3699 29.736 20.2899 29.48C20.1939 29.128 20.1459 28.696 20.1459 28.184C20.1459 28.12 20.1059 28.088 20.0259 28.088C19.9459 28.088 19.7619 28.248 19.4739 28.568C18.5779 29.496 17.8499 29.96 17.2899 29.96C16.7459 29.96 16.3219 29.816 16.0179 29.528C15.7299 29.24 15.5859 28.872 15.5859 28.424C15.5859 27.64 15.7939 26.896 16.2099 26.192C16.6259 25.472 17.1219 24.896 17.6979 24.464C18.9779 23.52 19.9699 23.048 20.6739 23.048C21.7299 23.08 22.2579 23.456 22.2579 24.176C22.2579 24.432 22.1459 24.688 21.9219 24.944C21.6979 25.184 21.4899 25.304 21.2979 25.304C21.1059 25.304 20.8419 25.136 20.5059 24.8C20.1699 24.464 19.8019 24.296 19.4019 24.296C19.0019 24.296 18.6739 24.464 18.4179 24.8C18.1619 25.12 18.0339 25.536 18.0339 26.048C18.0339 26.88 18.4739 27.296 19.3539 27.296C19.7059 27.296 19.9939 27.208 20.2179 27.032C20.4579 26.856 20.6259 26.664 20.7219 26.456C20.9939 25.912 21.2419 25.64 21.4659 25.64C21.6579 25.64 21.7539 25.736 21.7539 25.928ZM24.4515 25.856L23.8035 25.904C23.5155 25.904 23.3715 25.832 23.3715 25.688C23.3715 25.464 23.6515 25.04 24.2115 24.416C24.7875 23.776 25.2995 23.456 25.7475 23.456C25.9395 23.456 26.1075 23.512 26.2515 23.624C26.4115 23.736 26.4995 23.872 26.5155 24.032L26.6355 25.112C26.6835 25.176 26.7315 25.208 26.7795 25.208C26.8275 25.208 26.9555 25.08 27.1635 24.824C27.8355 24.04 28.4355 23.648 28.9635 23.648C29.1715 23.648 29.3395 23.68 29.4675 23.744C29.5955 23.808 29.7395 23.936 29.8995 24.128C30.0755 24.304 30.1715 24.4 30.1875 24.416C30.2995 24.368 30.4115 24.344 30.5235 24.344C30.6995 24.344 30.7875 24.456 30.7875 24.68C30.7875 24.888 30.4755 25.288 29.8515 25.88C29.2275 26.456 28.7635 26.744 28.4595 26.744C28.1555 26.744 27.8995 26.608 27.6915 26.336C27.4835 26.064 27.3315 25.928 27.2355 25.928C26.8675 25.928 26.6835 26.12 26.6835 26.504C26.6835 26.792 26.8115 27.28 27.0675 27.968C27.3395 28.656 27.4755 29.064 27.4755 29.192C27.4755 29.512 27.3075 29.76 26.9715 29.936C26.6515 30.128 26.2915 30.224 25.8915 30.224C25.5075 30.224 25.1955 30.16 24.9555 30.032C24.7155 29.904 24.5955 29.728 24.5955 29.504L25.2675 26.6C25.2675 26.104 24.9955 25.856 24.4515 25.856ZM31.2328 21.536C30.9928 21.264 30.8728 20.928 30.8728 20.528C30.8728 20.128 30.9928 19.792 31.2328 19.52C31.4888 19.248 31.8008 19.112 32.1688 19.112C32.5368 19.112 32.8408 19.248 33.0808 19.52C33.3368 19.792 33.4648 20.128 33.4648 20.528C33.4648 20.928 33.3368 21.264 33.0808 21.536C32.8408 21.808 32.5368 21.944 32.1688 21.944C31.8008 21.944 31.4888 21.808 31.2328 21.536ZM36.2248 26.768C36.3848 26.64 36.5288 26.576 36.6568 26.576C36.8808 26.576 36.9928 26.72 36.9928 27.008C36.9928 27.408 36.4968 28.008 35.5048 28.808C34.5128 29.592 33.6568 29.984 32.9368 29.984C32.2168 29.984 31.6568 29.728 31.2568 29.216C30.8568 28.704 30.6568 28.048 30.6568 27.248C30.6568 26.432 30.7928 25.648 31.0648 24.896C31.3368 24.144 31.6088 23.768 31.8808 23.768C32.0088 23.784 32.0728 23.984 32.0728 24.368C32.0728 24.736 32.1288 25.144 32.2408 25.592C32.3528 26.04 32.5928 26.472 32.9608 26.888C33.3448 27.288 33.8328 27.488 34.4248 27.488C35.0328 27.488 35.6328 27.248 36.2248 26.768ZM36.2578 29.504C36.2578 29.232 36.8178 28.52 37.9378 27.368C37.2338 26.344 36.8818 25.344 36.8818 24.368C36.8818 24.096 37.1138 23.728 37.5778 23.264C38.0578 22.8 38.4338 22.568 38.7058 22.568C38.8658 22.568 38.9778 22.664 39.0418 22.856C39.1058 23.032 39.1538 23.136 39.1858 23.168C39.3938 23.728 39.7698 24.416 40.3138 25.232C41.0178 24.688 41.5058 24.32 41.7778 24.128C42.0658 23.936 42.2738 23.84 42.4018 23.84C42.6098 23.84 42.7138 23.928 42.7138 24.104C42.7138 24.232 42.6178 24.368 42.4258 24.512C42.0258 24.768 41.4578 25.2 40.7218 25.808C41.6018 26.96 42.4578 27.536 43.2898 27.536C43.4658 27.536 43.5938 27.512 43.6738 27.464C43.7698 27.416 43.8338 27.392 43.8658 27.392C44.0258 27.392 44.1058 27.472 44.1058 27.632C44.1058 27.728 43.9858 27.928 43.7458 28.232C43.5058 28.52 43.1458 28.816 42.6658 29.12C42.1858 29.424 41.6978 29.576 41.2018 29.576C40.2578 29.576 39.3218 29.04 38.3938 27.968C37.8338 28.576 37.3938 29.112 37.0738 29.576C36.8658 29.784 36.7138 29.888 36.6178 29.888C36.5218 29.888 36.4338 29.848 36.3538 29.768C36.2898 29.688 36.2578 29.6 36.2578 29.504Z" fill="white"/>
</svg>
