<svg xmlns="http://www.w3.org/2000/svg" width="21" height="21" viewBox="0 0 21 21" fill="none">
<path fill-rule="evenodd" clip-rule="evenodd" d="M4.33423 13V18Z" fill="#B3E5FC"/>
<path d="M4.33423 13V18" stroke="#B3E5FC" stroke-width="0.5" stroke-linecap="round"/>
<path fill-rule="evenodd" clip-rule="evenodd" d="M6.60482 14.187L2 16.687Z" fill="#B3E5FC"/>
<path d="M6.60482 14.187L2 16.687" stroke="#B3E5FC" stroke-width="0.5" stroke-linecap="round"/>
<path fill-rule="evenodd" clip-rule="evenodd" d="M2.00122 14.1651L6.60604 16.6651Z" fill="#B3E5FC"/>
<path d="M2.00122 14.1651L6.60604 16.6651" stroke="#B3E5FC" stroke-width="0.5" stroke-linecap="round"/>
<path d="M3.57812 13.4407L4.32597 14.2988L5.07382 13.4536" stroke="#B3E5FC" stroke-width="0.5" stroke-linecap="round"/>
<path d="M3.57959 17.6589L4.32744 16.8008L5.07528 17.646" stroke="#B3E5FC" stroke-width="0.5" stroke-linecap="round"/>
<path d="M5.94292 13.6697L5.57373 14.7464L6.6796 14.9715" stroke="#B3E5FC" stroke-width="0.5" stroke-linecap="round"/>
<path d="M6.64829 15.8348L5.53125 16.0535L5.88927 17.1237" stroke="#B3E5FC" stroke-width="0.5" stroke-linecap="round"/>
<path d="M2.88194 17.0598L3.25113 15.9831L2.14526 15.758" stroke="#B3E5FC" stroke-width="0.5" stroke-linecap="round"/>
<path d="M2.05493 15.0385L3.17197 14.8199L2.81395 13.7496" stroke="#B3E5FC" stroke-width="0.5" stroke-linecap="round"/>
<path fill-rule="evenodd" clip-rule="evenodd" d="M10.3342 15V20V15Z" fill="#B3E5FC"/>
<path d="M10.3342 15V20" stroke="#B3E5FC" stroke-width="0.5" stroke-linecap="round"/>
<path fill-rule="evenodd" clip-rule="evenodd" d="M12.6048 16.187L8 18.687L12.6048 16.187Z" fill="#B3E5FC"/>
<path d="M12.6048 16.187L8 18.687" stroke="#B3E5FC" stroke-width="0.5" stroke-linecap="round"/>
<path fill-rule="evenodd" clip-rule="evenodd" d="M8.00122 16.1651L12.606 18.6651L8.00122 16.1651Z" fill="#B3E5FC"/>
<path d="M8.00122 16.1651L12.606 18.6651" stroke="#B3E5FC" stroke-width="0.5" stroke-linecap="round"/>
<path d="M9.57812 15.4407L10.326 16.2988L11.0738 15.4536" stroke="#B3E5FC" stroke-width="0.5" stroke-linecap="round"/>
<path d="M9.57959 19.6589L10.3274 18.8008L11.0753 19.646" stroke="#B3E5FC" stroke-width="0.5" stroke-linecap="round"/>
<path d="M11.9429 15.6697L11.5737 16.7464L12.6796 16.9715" stroke="#B3E5FC" stroke-width="0.5" stroke-linecap="round"/>
<path d="M12.6483 17.8348L11.5312 18.0535L11.8893 19.1237" stroke="#B3E5FC" stroke-width="0.5" stroke-linecap="round"/>
<path d="M8.88194 19.0598L9.25113 17.9831L8.14526 17.758" stroke="#B3E5FC" stroke-width="0.5" stroke-linecap="round"/>
<path d="M8.05493 17.0385L9.17197 16.8199L8.81395 15.7496" stroke="#B3E5FC" stroke-width="0.5" stroke-linecap="round"/>
<path fill-rule="evenodd" clip-rule="evenodd" d="M15.3342 11V16V11Z" fill="#B3E5FC"/>
<path d="M15.3342 11V16" stroke="#B3E5FC" stroke-width="0.5" stroke-linecap="round"/>
<path fill-rule="evenodd" clip-rule="evenodd" d="M17.6048 12.187L13 14.687L17.6048 12.187Z" fill="#B3E5FC"/>
<path d="M17.6048 12.187L13 14.687" stroke="#B3E5FC" stroke-width="0.5" stroke-linecap="round"/>
<path fill-rule="evenodd" clip-rule="evenodd" d="M13.0012 12.1651L17.606 14.6651L13.0012 12.1651Z" fill="#B3E5FC"/>
<path d="M13.0012 12.1651L17.606 14.6651" stroke="#B3E5FC" stroke-width="0.5" stroke-linecap="round"/>
<path d="M14.5781 11.4407L15.326 12.2988L16.0738 11.4536" stroke="#B3E5FC" stroke-width="0.5" stroke-linecap="round"/>
<path d="M14.5796 15.6589L15.3274 14.8008L16.0753 15.646" stroke="#B3E5FC" stroke-width="0.5" stroke-linecap="round"/>
<path d="M16.9429 11.6697L16.5737 12.7464L17.6796 12.9715" stroke="#B3E5FC" stroke-width="0.5" stroke-linecap="round"/>
<path d="M17.6483 13.8348L16.5312 14.0535L16.8893 15.1237" stroke="#B3E5FC" stroke-width="0.5" stroke-linecap="round"/>
<path d="M13.8819 15.0598L14.2511 13.9831L13.1453 13.758" stroke="#B3E5FC" stroke-width="0.5" stroke-linecap="round"/>
<path d="M13.0549 13.0385L14.172 12.8199L13.814 11.7496" stroke="#B3E5FC" stroke-width="0.5" stroke-linecap="round"/>
<path d="M18.8893 6.78261C18.8225 5.7092 18.3519 4.70175 17.5732 3.96524C16.7946 3.22874 15.7664 2.81851 14.698 2.81803C14.5014 2.81802 14.305 2.8317 14.1103 2.85896C13.6673 1.99891 12.9985 1.27761 12.1765 0.773533C11.3546 0.269459 10.4111 0.00191223 9.44868 0C9.39469 0 9.33642 0.000352334 9.29919 0.00352262C8.23902 0.0304728 7.21211 0.381607 6.355 1.01024C5.49788 1.63887 4.85117 2.51523 4.50083 3.52278C3.76711 3.53649 3.06798 3.83929 2.5536 4.36614C2.03922 4.89299 1.75062 5.60188 1.74976 6.34056C1.74982 6.44839 1.75609 6.55613 1.76856 6.66323C1.24008 6.92568 0.79469 7.33112 0.482312 7.83409C0.169935 8.33706 0.00292468 8.91768 7.62101e-06 9.51085C-0.0012207 10.069 0.146053 10.6173 0.426528 11.0987C0.457421 11.1515 0.50148 11.1953 0.554346 11.2257C0.607212 11.2561 0.667051 11.2721 0.727941 11.2721H4.67535C4.75872 11.2721 4.83934 11.2422 4.90272 11.1876C4.96609 11.1331 5.00805 11.0576 5.02103 10.9747C5.12203 10.3329 5.44722 9.74845 5.93812 9.32643C6.42901 8.90441 7.0534 8.67255 7.69896 8.67255C8.34453 8.67255 8.96892 8.90441 9.45981 9.32643C9.95071 9.74845 10.2759 10.3329 10.3769 10.9747C10.3899 11.0576 10.4318 11.1331 10.4952 11.1876C10.5586 11.2422 10.6392 11.2721 10.7226 11.2721H20.2062C20.2625 11.2721 20.318 11.2585 20.3679 11.2323C20.4178 11.2061 20.4608 11.1682 20.493 11.1218C20.8219 10.6499 20.9979 10.0873 20.9971 9.51085C20.9947 8.88554 20.7866 8.27864 20.4053 7.78503C20.0239 7.29141 19.4908 6.9389 18.8893 6.78261Z" fill="#9CD5F2"/>
<path d="M11.2179 11.3005C11.2115 11.1747 11.1989 11.0493 11.1802 10.9249C11.0545 10.0974 10.6497 9.34379 10.0384 8.79968C9.42719 8.25557 8.64972 7.95668 7.8459 7.95679C7.04208 7.9569 6.26469 8.256 5.65359 8.80027C5.04249 9.34455 4.63781 10.0983 4.51235 10.9258C4.49381 11.05 4.48128 11.175 4.47482 11.3005C3.9411 11.5014 3.47978 11.8689 3.15366 12.353C2.82755 12.837 2.65249 13.414 2.65234 14.0055C2.65234 14.1012 2.68883 14.193 2.75376 14.2607C2.8187 14.3284 2.90678 14.3664 2.99861 14.3664H12.6941C12.7859 14.3664 12.874 14.3284 12.9389 14.2607C13.0039 14.193 13.0404 14.1012 13.0404 14.0055C13.0402 13.414 12.8652 12.837 12.5391 12.353C12.2129 11.8689 11.7516 11.5014 11.2179 11.3005Z" fill="#B2EBF2"/>
</svg>